<svg width="50" height="17" viewBox="0 0 50 17" fill="none" xmlns="http://www.w3.org/2000/svg">
<path d="M49.4991 4.74164C49.5158 4.466 49.3059 4.22902 49.0302 4.21232L44.5385 3.94023C44.2628 3.92353 44.0258 4.13344 44.0091 4.40908C43.9925 4.68472 44.2024 4.9217 44.478 4.9384L48.4707 5.18026L48.2288 9.17294C48.2121 9.44858 48.422 9.68556 48.6977 9.70226C48.9733 9.71896 49.2103 9.50904 49.227 9.23341L49.4991 4.74164ZM0.5 0C0.5 5.60137 2.53346 9.68495 5.88625 12.3888C9.22152 15.0785 13.8081 16.3598 18.8542 16.4891C28.9394 16.7473 41.0617 12.4108 49.3315 5.08569L48.6685 4.33712C40.5836 11.4985 28.7059 15.741 18.8798 15.4894C13.9702 15.3637 9.6233 14.1178 6.51399 11.6104C3.42221 9.11701 1.5 5.33345 1.5 0H0.5Z" fill="#999999"/>
</svg>
